# xmcd CD database file
#
# Track frame offsets:
#	150
#	14210
#	30450
#	42660
#	52085
#	60415
#	76112
#	90127
#	102095
#	112712
#	121667
#	133947
#	144230
#	156082
#	165882
#	177512
#	191565
#	201892
#	211152
#	226800
#	237865
#	250327
#	263745
#	275232
#	285352
#
# Disc length: 4012 seconds
#
# Revision: 3
# Processed by: cddbd v1.5.2PL0 Copyright (c) Steve Scherf et al.
# Submitted via: CDex 1.60beta1
#
DISCID=4d0faa19
DTITLE=Eddy Arnold - Cattle Call and Thereby Hangs A Tale
DYEAR=1990
DGENRE=Country
TTITLE0=The Streets of Laredo
TTITLE1=Cool Water
TTITLE2=Cattle Call
TTITLE3=Leanin' on the Old Top Rail
TTITLE4=Ole Faithful
TTITLE5=A Cowboy's Dream
TTITLE6=The Wayward Wind
TTITLE7=Tumblin Tumbleweeds
TTITLE8=Cowpoke
TTITLE9=Where the Mountains meet the Sky
TTITLE10=Sierra Sue
TTITLE11=Carry Me back to the Lone Prairie
TTITLE12=Jim I Wore a Tie Today
TTITLE13=Tom Dooley
TTITLE14=Nellie sits A-Waitin'
TTITLE15=Tennesee Stud
TTITLE16=The Battle of Little Big Horn
TTITLE17=The Wreck of the Old '97
TTITLE18=The Red Headed Stranger
TTITLE19=Johnny Reb, That's Me
TTITLE20=Riders in the Sky
TTITLE21=Boot Hill
TTITLE22=The Ballad of Davy Crockett
TTITLE23=Partners
TTITLE24=Jesse James
EXTD=YEAR: 1990
EXTT0=
EXTT1=
EXTT2=
EXTT3=
EXTT4=
EXTT5=
EXTT6=
EXTT7=
EXTT8=
EXTT9=
EXTT10=
EXTT11=
EXTT12=
EXTT13=
EXTT14=
EXTT15=
EXTT16=
EXTT17=
EXTT18=
EXTT19=
EXTT20=
EXTT21=
EXTT22=
EXTT23=
EXTT24=
PLAYORDER=
